<svg aria-hidden="true" style="width:0;height:0;position:absolute;overflow:hidden" xmlns="http://www.w3.org/2000/svg"><defs><symbol id="closeX" viewBox="0 0 32 32"><path stroke-width="2" d="m2.519 2 26.963 28M2 29.481 30 2.518"/></symbol><symbol id="close-black" viewBox="0 0 32 32"><path d="M32 3.223 28.777 0 16 12.777 3.223 0 0 3.223 12.777 16 0 28.777 3.223 32 16 19.223 28.777 32 32 28.777 19.223 16 32 3.223z"/></symbol><symbol id="theater-or-cinema" viewBox="0 0 32 32"><path d="M.906.087C.375.324.175.918.437 1.443c.162.319.438.481.887.531l.363.044v10.669l2.912-.012 2.906-.019.112-.325c.206-.606.506-.919 1.456-1.481 1.8-1.081 3.194-2.431 4.463-4.35.681-1.025 1.512-2.631 1.969-3.813l.269-.688h.45l.269.688c.45 1.175 1.281 2.781 1.962 3.813 1.256 1.894 2.681 3.281 4.469 4.35.95.563 1.25.875 1.456 1.481l.113.325 2.906.019 2.913.012V2.018l.363-.044c.456-.05.725-.212.894-.544.231-.456.1-.938-.344-1.269L31.056.03 16.075.017C3.688.004 1.063.017.906.086z"/><path d="m15.119 10.075-.856 1.706-1.863.269c-1.025.15-1.875.281-1.887.294-.019.012.581.619 1.325 1.35.831.813 1.35 1.369 1.35 1.438 0 .119-.525 3.25-.594 3.537-.019.081-.012.144.019.144.025 0 .8-.394 1.719-.875l1.669-.881 1.669.881c.919.481 1.694.875 1.719.875.031 0 .038-.063.019-.144-.069-.288-.594-3.419-.594-3.537 0-.069.519-.625 1.35-1.438.744-.731 1.344-1.338 1.325-1.35-.012-.012-.863-.144-1.887-.294l-1.863-.269-.856-1.706c-.469-.931-.863-1.7-.881-1.7s-.412.769-.881 1.7zM1.688 19.188v5.625H4.8l.556-.556.563-.55.037-.806c.037-.894.156-1.331.487-1.844.425-.663 1.25-1.244 2.025-1.438.175-.038.319-.081.325-.087.012-.006-.069-.262-.169-.569-.619-1.819-1.125-4.137-1.125-5.131v-.269H1.686v5.625zM24.5 13.831c0 .994-.506 3.313-1.125 5.131-.1.306-.181.563-.169.569.006.006.156.05.325.087.775.194 1.6.775 2.025 1.438.331.512.45.95.488 1.844l.038.806.563.55.556.556h3.113v-11.25h-5.813v.269zM8.956 20.75c-.669.144-1.225.55-1.494 1.1-.15.306-.175.444-.2 1.125l-.031.781.338-.05c.487-.075 1.406-.05 1.806.038.919.212 1.819.887 2.169 1.631.094.2.194.369.225.369.025.006.044-.8.044-1.781v-1.781l-.169-.344c-.325-.669-1.019-1.075-1.9-1.119-.287-.012-.644 0-.787.031zm6.482.006c-.669.131-1.25.581-1.519 1.175-.113.244-.137.444-.156 1.337l-.025 1.044.469-.238c.6-.306 1.1-.419 1.888-.413.731 0 1.156.094 1.719.363.225.106.431.206.456.219.031.012.044-.469.031-1.063-.019-1.012-.031-1.106-.175-1.387-.419-.825-1.544-1.262-2.688-1.038zm6.399-.006c-.656.137-1.219.55-1.481 1.081l-.169.35v1.781c0 .981.019 1.788.05 1.781.025 0 .125-.169.219-.369.35-.744 1.25-1.419 2.169-1.631.4-.087 1.319-.113 1.806-.038l.337.05-.031-.769c-.025-.613-.056-.831-.169-1.081-.181-.419-.669-.863-1.119-1.031-.394-.15-1.212-.212-1.613-.125zM7.531 24.775c-.506.125-.912.35-1.287.725-.55.55-.563.613-.544 2.944.019 2.244.013 2.212.581 2.775.356.363.85.619 1.381.712 1.381.256 2.713-.256 3.194-1.231l.175-.356v-4l-.175-.356c-.294-.594-.944-1.063-1.719-1.231-.425-.087-1.2-.081-1.606.019zm7.688 0c-.731.181-1.313.6-1.625 1.169l-.188.337v4.125l.188.337c.537.969 1.813 1.444 3.181 1.188.85-.156 1.587-.719 1.844-1.4.131-.35.137-.431.119-2.306l-.019-1.944-.188-.337c-.325-.581-.956-1.025-1.706-1.188-.425-.087-1.206-.081-1.606.019zm7.562 0c-.756.188-1.35.631-1.637 1.212l-.175.356v4l.175.356c.725 1.469 3.331 1.769 4.575.519.569-.563.563-.531.581-2.775.019-2.331.006-2.394-.544-2.95a2.753 2.753 0 0 0-1.369-.738c-.425-.087-1.206-.081-1.606.019z"/></symbol></defs></svg>