<svg aria-hidden="true" style="position: absolute; width: 0; height: 0; overflow: hidden;" 
    version="1.1" xmlns="http://www.w3.org/2000/svg" xmlns:xlink="http://www.w3.org/1999/xlink">
    <defs>
        <symbol id="closeX" viewBox="0 0 32 32">
            <path stroke-linejoin="miter" stroke-linecap="butt" 
                stroke-miterlimit="4" stroke-width="2" 
                d="M2.519 2l26.963 28M2 29.481l28-26.963">
            </path>
        </symbol>
        <symbol id="close-black" viewBox="0 0 32 32">
            <path d="M32 3.223l-3.223-3.223-12.777 12.777-12.777-12.777-3.223 3.223 12.777 12.777-12.777 12.777 3.223 3.223 12.777-12.777 12.777 12.777 3.223-3.223-12.777-12.777 12.777-12.777z"></path>
        </symbol>
        <symbol id="theater-or-cinema" viewBox="0 0 32 32">
            <path d="M0.906 0.087c-0.531 0.237-0.731 0.831-0.469 1.356 0.162 0.319 0.438 0.481 0.887 0.531l0.363 0.044v10.669l2.912-0.012 2.906-0.019 0.112-0.325c0.206-0.606 0.506-0.919 1.456-1.481 1.8-1.081 3.194-2.431 4.463-4.35 0.681-1.025 1.512-2.631 1.969-3.813l0.269-0.688h0.45l0.269 0.688c0.45 1.175 1.281 2.781 1.962 3.813 1.256 1.894 2.681 3.281 4.469 4.35 0.95 0.563 1.25 0.875 1.456 1.481l0.113 0.325 2.906 0.019 2.913 0.012v-10.669l0.363-0.044c0.456-0.050 0.725-0.212 0.894-0.544 0.231-0.456 0.1-0.938-0.344-1.269l-0.169-0.131-14.981-0.013c-12.387-0.013-15.012 0-15.169 0.069z"></path>
            <path d="M15.119 10.075l-0.856 1.706-1.863 0.269c-1.025 0.15-1.875 0.281-1.887 0.294-0.019 0.012 0.581 0.619 1.325 1.35 0.831 0.813 1.35 1.369 1.35 1.438 0 0.119-0.525 3.25-0.594 3.537-0.019 0.081-0.012 0.144 0.019 0.144 0.025 0 0.8-0.394 1.719-0.875l1.669-0.881 1.669 0.881c0.919 0.481 1.694 0.875 1.719 0.875 0.031 0 0.038-0.063 0.019-0.144-0.069-0.288-0.594-3.419-0.594-3.537 0-0.069 0.519-0.625 1.35-1.438 0.744-0.731 1.344-1.338 1.325-1.35-0.012-0.012-0.863-0.144-1.887-0.294l-1.863-0.269-0.856-1.706c-0.469-0.931-0.863-1.7-0.881-1.7s-0.412 0.769-0.881 1.7zM1.688 19.188v5.625h3.112l0.556-0.556 0.563-0.55 0.037-0.806c0.037-0.894 0.156-1.331 0.487-1.844 0.425-0.663 1.25-1.244 2.025-1.438 0.175-0.038 0.319-0.081 0.325-0.087 0.012-0.006-0.069-0.262-0.169-0.569-0.619-1.819-1.125-4.137-1.125-5.131v-0.269h-5.813v5.625zM24.5 13.831c0 0.994-0.506 3.313-1.125 5.131-0.1 0.306-0.181 0.563-0.169 0.569 0.006 0.006 0.156 0.050 0.325 0.087 0.775 0.194 1.6 0.775 2.025 1.438 0.331 0.512 0.45 0.95 0.488 1.844l0.038 0.806 0.563 0.55 0.556 0.556h3.113v-11.25h-5.813v0.269zM8.956 20.75c-0.669 0.144-1.225 0.55-1.494 1.1-0.15 0.306-0.175 0.444-0.2 1.125l-0.031 0.781 0.338-0.050c0.487-0.075 1.406-0.050 1.806 0.038 0.919 0.212 1.819 0.887 2.169 1.631 0.094 0.2 0.194 0.369 0.225 0.369 0.025 0.006 0.044-0.8 0.044-1.781v-1.781l-0.169-0.344c-0.325-0.669-1.019-1.075-1.9-1.119-0.287-0.012-0.644 0-0.787 0.031zM15.438 20.756c-0.669 0.131-1.25 0.581-1.519 1.175-0.113 0.244-0.137 0.444-0.156 1.337l-0.025 1.044 0.469-0.238c0.6-0.306 1.1-0.419 1.888-0.413 0.731 0 1.156 0.094 1.719 0.363 0.225 0.106 0.431 0.206 0.456 0.219 0.031 0.012 0.044-0.469 0.031-1.063-0.019-1.012-0.031-1.106-0.175-1.387-0.419-0.825-1.544-1.262-2.688-1.038zM21.837 20.75c-0.656 0.137-1.219 0.55-1.481 1.081l-0.169 0.35v1.781c0 0.981 0.019 1.788 0.050 1.781 0.025 0 0.125-0.169 0.219-0.369 0.35-0.744 1.25-1.419 2.169-1.631 0.4-0.087 1.319-0.113 1.806-0.038l0.337 0.050-0.031-0.769c-0.025-0.613-0.056-0.831-0.169-1.081-0.181-0.419-0.669-0.863-1.119-1.031-0.394-0.15-1.212-0.212-1.613-0.125zM7.531 24.775c-0.506 0.125-0.912 0.35-1.287 0.725-0.55 0.55-0.563 0.613-0.544 2.944 0.019 2.244 0.013 2.212 0.581 2.775 0.356 0.363 0.85 0.619 1.381 0.712 1.381 0.256 2.713-0.256 3.194-1.231l0.175-0.356v-4l-0.175-0.356c-0.294-0.594-0.944-1.063-1.719-1.231-0.425-0.087-1.2-0.081-1.606 0.019zM15.219 24.775c-0.731 0.181-1.313 0.6-1.625 1.169l-0.188 0.337v4.125l0.188 0.337c0.537 0.969 1.813 1.444 3.181 1.188 0.85-0.156 1.587-0.719 1.844-1.4 0.131-0.35 0.137-0.431 0.119-2.306l-0.019-1.944-0.188-0.337c-0.325-0.581-0.956-1.025-1.706-1.188-0.425-0.087-1.206-0.081-1.606 0.019zM22.781 24.775c-0.756 0.188-1.35 0.631-1.637 1.212l-0.175 0.356v4l0.175 0.356c0.725 1.469 3.331 1.769 4.575 0.519 0.569-0.563 0.563-0.531 0.581-2.775 0.019-2.331 0.006-2.394-0.544-2.95-0.381-0.375-0.844-0.625-1.369-0.738-0.425-0.087-1.206-0.081-1.606 0.019z"></path>
        </symbol>
    </defs>
</svg>